<svg xmlns="http://www.w3.org/2000/svg" viewBox="0 0 64 64" role="img" aria-label="Knowra">
  <rect width="64" height="64" rx="14" fill="#F5F0E8"/>
  <!-- Left page -->
  <path fill="#1A1A1A" d="M31.2 18.5c-7.2 1.8-13.4 8.2-15.4 16.4-1 4.1.2 8.1 3.4 10.6 2.4 1.9 5.4 2.7 8.6 2.7h3.4V18.5z"/>
  <path fill="#F5F0E8" d="M18.8 36.2c3.1-2.4 6.6-3.5 10.4-3.2.6 0 1 .5.9 1.1-.4 3.2-2.2 5.9-5 7.6-2.4 1.5-5.3 1.3-6.8-1-.8-1.3-.7-3 .5-4.5z"/>
  <!-- Right page -->
  <path fill="#1A1A1A" d="M32.8 18.5c7.2 1.8 13.4 8.2 15.4 16.4 1 4.1-.2 8.1-3.4 10.6-2.4 1.9-5.4 2.7-8.6 2.7h-3.4V18.5z"/>
  <path fill="#F5F0E8" d="M45.2 36.2c-3.1-2.4-6.6-3.5-10.4-3.2-.6 0-1 .5-.9 1.1.4 3.2 2.2 5.9 5 7.6 2.4 1.5 5.3 1.3 6.8-1 .8-1.3.7-3-.5-4.5z"/>
  <!-- Center split -->
  <rect x="30.8" y="18" width="2.4" height="30.5" fill="#F5F0E8"/>
  <!-- Insight spark -->
  <circle cx="32" cy="13" r="4" fill="#C99742"/>
</svg>
